<svg xmlns="http://www.w3.org/2000/svg" xmlns:xlink="http://www.w3.org/1999/xlink" width="94" zoomAndPan="magnify" viewBox="0 0 70.5 30.000001" height="40" preserveAspectRatio="xMidYMid meet" version="1.0"><defs><g/><clipPath id="b3a722443a"><path d="M 12 10 L 17.589844 10 L 17.589844 19 L 12 19 Z M 12 10 " clip-rule="nonzero"/></clipPath><clipPath id="0d162e035b"><path d="M 6 8.675781 L 12 8.675781 L 12 20.289062 L 6 20.289062 Z M 6 8.675781 " clip-rule="nonzero"/></clipPath></defs><path fill="#ffffff" d="M 5.203125 18.875 C 4.953125 18.875 4.785156 18.792969 4.617188 18.625 L 1.273438 15.28125 C 0.9375 14.945312 0.9375 14.445312 1.273438 14.109375 L 4.617188 10.765625 C 4.953125 10.429688 5.453125 10.429688 5.789062 10.765625 C 6.121094 11.097656 6.121094 11.601562 5.789062 11.9375 L 3.027344 14.695312 L 5.789062 17.453125 C 6.121094 17.789062 6.121094 18.289062 5.789062 18.625 C 5.621094 18.792969 5.453125 18.875 5.203125 18.875 Z M 5.203125 18.875 " fill-opacity="1" fill-rule="nonzero"/><g clip-path="url(#b3a722443a)"><path fill="#ffffff" d="M 13.566406 18.875 C 13.3125 18.875 13.148438 18.792969 12.980469 18.625 C 12.644531 18.289062 12.644531 17.789062 12.980469 17.453125 L 15.738281 14.695312 L 12.980469 11.9375 C 12.644531 11.601562 12.644531 11.097656 12.980469 10.765625 C 13.3125 10.429688 13.816406 10.429688 14.148438 10.765625 L 17.496094 14.109375 C 17.828125 14.445312 17.828125 14.945312 17.496094 15.28125 L 14.148438 18.625 C 13.984375 18.792969 13.816406 18.875 13.566406 18.875 Z M 13.566406 18.875 " fill-opacity="1" fill-rule="nonzero"/></g><g clip-path="url(#0d162e035b)"><path fill="#ffffff" d="M 7.710938 20.546875 C 7.628906 20.546875 7.542969 20.546875 7.460938 20.464844 C 7.042969 20.296875 6.792969 19.878906 6.957031 19.378906 L 10.304688 9.34375 C 10.472656 8.925781 10.890625 8.675781 11.390625 8.84375 C 11.808594 9.007812 12.058594 9.425781 11.890625 9.929688 L 8.546875 19.964844 C 8.378906 20.296875 8.046875 20.546875 7.710938 20.546875 Z M 7.710938 20.546875 " fill-opacity="1" fill-rule="nonzero"/></g><g fill="#ffffff" fill-opacity="1"><g transform="translate(21.986938, 17.82448)"><g><path d="M 3.28125 -7.09375 C 4.03125 -7.09375 4.679688 -6.941406 5.234375 -6.640625 C 5.796875 -6.347656 6.226562 -5.929688 6.53125 -5.390625 C 6.84375 -4.859375 7 -4.242188 7 -3.546875 C 7 -2.847656 6.84375 -2.226562 6.53125 -1.6875 C 6.226562 -1.15625 5.796875 -0.738281 5.234375 -0.4375 C 4.671875 -0.144531 4.019531 0 3.28125 0 L 0.625 0 L 0.625 -7.09375 Z M 3.171875 -1.5 C 3.828125 -1.5 4.335938 -1.675781 4.703125 -2.03125 C 5.066406 -2.382812 5.25 -2.890625 5.25 -3.546875 C 5.25 -4.203125 5.066406 -4.710938 4.703125 -5.078125 C 4.335938 -5.441406 3.828125 -5.625 3.171875 -5.625 L 2.359375 -5.625 L 2.359375 -1.5 Z M 3.171875 -1.5 "/></g></g></g><g fill="#ffffff" fill-opacity="1"><g transform="translate(29.333026, 17.82448)"><g><path d="M 2.359375 -5.71875 L 2.359375 -4.28125 L 4.671875 -4.28125 L 4.671875 -2.9375 L 2.359375 -2.9375 L 2.359375 -1.390625 L 4.96875 -1.390625 L 4.96875 0 L 0.625 0 L 0.625 -7.09375 L 4.96875 -7.09375 L 4.96875 -5.71875 Z M 2.359375 -5.71875 "/></g></g></g><g fill="#ffffff" fill-opacity="1"><g transform="translate(34.799643, 17.82448)"><g><path d="M 7.28125 -7.09375 L 4.765625 0 L 2.609375 0 L 0.09375 -7.09375 L 1.9375 -7.09375 L 3.6875 -1.734375 L 5.453125 -7.09375 Z M 7.28125 -7.09375 "/></g></g></g><g fill="#ffffff" fill-opacity="1"><g transform="translate(42.176043, 17.82448)"><g/></g></g><g fill="#ffffff" fill-opacity="1"><g transform="translate(44.318233, 17.82448)"><g><path d="M 5.078125 -7.09375 L 5.078125 -2.265625 C 5.078125 -1.515625 4.863281 -0.9375 4.4375 -0.53125 C 4.019531 -0.125 3.453125 0.078125 2.734375 0.078125 C 1.992188 0.078125 1.394531 -0.132812 0.9375 -0.5625 C 0.488281 -0.988281 0.265625 -1.59375 0.265625 -2.375 L 1.984375 -2.375 C 1.984375 -2.082031 2.039062 -1.859375 2.15625 -1.703125 C 2.28125 -1.546875 2.457031 -1.46875 2.6875 -1.46875 C 2.894531 -1.46875 3.054688 -1.535156 3.171875 -1.671875 C 3.285156 -1.804688 3.34375 -2.003906 3.34375 -2.265625 L 3.34375 -7.09375 Z M 5.078125 -7.09375 "/></g></g></g><g fill="#ffffff" fill-opacity="1"><g transform="translate(50.158729, 17.82448)"><g><path d="M 3.1875 0.078125 C 2.632812 0.078125 2.140625 -0.0351562 1.703125 -0.265625 C 1.265625 -0.503906 0.914062 -0.84375 0.65625 -1.28125 C 0.40625 -1.71875 0.28125 -2.234375 0.28125 -2.828125 C 0.28125 -3.398438 0.40625 -3.90625 0.65625 -4.34375 C 0.914062 -4.789062 1.269531 -5.128906 1.71875 -5.359375 C 2.164062 -5.597656 2.664062 -5.71875 3.21875 -5.71875 C 3.769531 -5.71875 4.265625 -5.597656 4.703125 -5.359375 C 5.148438 -5.128906 5.5 -4.789062 5.75 -4.34375 C 6.007812 -3.90625 6.140625 -3.398438 6.140625 -2.828125 C 6.140625 -2.242188 6.007812 -1.726562 5.75 -1.28125 C 5.5 -0.84375 5.148438 -0.503906 4.703125 -0.265625 C 4.253906 -0.0351562 3.75 0.078125 3.1875 0.078125 Z M 3.1875 -1.421875 C 3.519531 -1.421875 3.800781 -1.539062 4.03125 -1.78125 C 4.269531 -2.019531 4.390625 -2.367188 4.390625 -2.828125 C 4.390625 -3.273438 4.273438 -3.617188 4.046875 -3.859375 C 3.816406 -4.097656 3.539062 -4.21875 3.21875 -4.21875 C 2.875 -4.21875 2.59375 -4.097656 2.375 -3.859375 C 2.15625 -3.628906 2.046875 -3.285156 2.046875 -2.828125 C 2.046875 -2.367188 2.15625 -2.019531 2.375 -1.78125 C 2.59375 -1.539062 2.863281 -1.421875 3.1875 -1.421875 Z M 3.1875 -1.421875 "/></g></g></g><g fill="#ffffff" fill-opacity="1"><g transform="translate(56.5954, 17.82448)"><g><path d="M 2.359375 -4.84375 C 2.515625 -5.101562 2.742188 -5.3125 3.046875 -5.46875 C 3.359375 -5.632812 3.707031 -5.71875 4.09375 -5.71875 C 4.5625 -5.71875 4.984375 -5.597656 5.359375 -5.359375 C 5.734375 -5.128906 6.03125 -4.796875 6.25 -4.359375 C 6.46875 -3.921875 6.578125 -3.410156 6.578125 -2.828125 C 6.578125 -2.253906 6.46875 -1.742188 6.25 -1.296875 C 6.03125 -0.859375 5.734375 -0.519531 5.359375 -0.28125 C 4.984375 -0.0390625 4.5625 0.078125 4.09375 0.078125 C 3.695312 0.078125 3.347656 0 3.046875 -0.15625 C 2.753906 -0.3125 2.523438 -0.519531 2.359375 -0.78125 L 2.359375 0 L 0.625 0 L 0.625 -7.484375 L 2.359375 -7.484375 Z M 4.828125 -2.828125 C 4.828125 -3.265625 4.707031 -3.601562 4.46875 -3.84375 C 4.226562 -4.09375 3.929688 -4.21875 3.578125 -4.21875 C 3.234375 -4.21875 2.941406 -4.09375 2.703125 -3.84375 C 2.460938 -3.59375 2.34375 -3.253906 2.34375 -2.828125 C 2.34375 -2.390625 2.460938 -2.046875 2.703125 -1.796875 C 2.941406 -1.546875 3.234375 -1.421875 3.578125 -1.421875 C 3.921875 -1.421875 4.210938 -1.546875 4.453125 -1.796875 C 4.703125 -2.054688 4.828125 -2.398438 4.828125 -2.828125 Z M 4.828125 -2.828125 "/></g></g></g><g fill="#ffffff" fill-opacity="1"><g transform="translate(63.456461, 17.82448)"><g><path d="M 2.921875 0.078125 C 2.429688 0.078125 1.992188 -0.00390625 1.609375 -0.171875 C 1.222656 -0.335938 0.914062 -0.566406 0.6875 -0.859375 C 0.46875 -1.148438 0.347656 -1.476562 0.328125 -1.84375 L 2.03125 -1.84375 C 2.050781 -1.65625 2.140625 -1.5 2.296875 -1.375 C 2.460938 -1.25 2.664062 -1.1875 2.90625 -1.1875 C 3.113281 -1.1875 3.273438 -1.226562 3.390625 -1.3125 C 3.515625 -1.40625 3.578125 -1.515625 3.578125 -1.640625 C 3.578125 -1.804688 3.492188 -1.925781 3.328125 -2 C 3.160156 -2.082031 2.882812 -2.171875 2.5 -2.265625 C 2.101562 -2.359375 1.769531 -2.457031 1.5 -2.5625 C 1.226562 -2.664062 0.992188 -2.828125 0.796875 -3.046875 C 0.597656 -3.273438 0.5 -3.582031 0.5 -3.96875 C 0.5 -4.289062 0.585938 -4.582031 0.765625 -4.84375 C 0.953125 -5.113281 1.21875 -5.328125 1.5625 -5.484375 C 1.90625 -5.640625 2.316406 -5.71875 2.796875 -5.71875 C 3.503906 -5.71875 4.0625 -5.539062 4.46875 -5.1875 C 4.875 -4.84375 5.109375 -4.378906 5.171875 -3.796875 L 3.578125 -3.796875 C 3.546875 -3.992188 3.457031 -4.148438 3.3125 -4.265625 C 3.175781 -4.378906 2.988281 -4.4375 2.75 -4.4375 C 2.550781 -4.4375 2.394531 -4.394531 2.28125 -4.3125 C 2.175781 -4.238281 2.125 -4.132812 2.125 -4 C 2.125 -3.84375 2.207031 -3.722656 2.375 -3.640625 C 2.550781 -3.554688 2.820312 -3.472656 3.1875 -3.390625 C 3.601562 -3.285156 3.941406 -3.179688 4.203125 -3.078125 C 4.460938 -2.972656 4.691406 -2.800781 4.890625 -2.5625 C 5.097656 -2.332031 5.203125 -2.023438 5.203125 -1.640625 C 5.203125 -1.304688 5.109375 -1.007812 4.921875 -0.75 C 4.742188 -0.488281 4.476562 -0.285156 4.125 -0.140625 C 3.78125 0.00390625 3.378906 0.078125 2.921875 0.078125 Z M 2.921875 0.078125 "/></g></g></g></svg>